<?xml version="1.0" encoding="UTF-8"?>
<svg version="1.1" id="Layer_1" xmlns="http://www.w3.org/2000/svg" xmlns:xlink="http://www.w3.org/1999/xlink" x="0px" y="0px"
     viewBox="0 0 512 512" style="enable-background:new 0 0 512 512;" xml:space="preserve">
<g id="surface1">
<path style=" stroke:none;fill-rule:nonzero;fill:rgb(53.333333%,77.254902%,80%);fill-opacity:1;" d="M 510.636719 255.320312 C 510.636719 396.328125 396.328125 510.636719 255.320312 510.636719 C 114.308594 510.636719 0 396.328125 0 255.320312 C 0 114.308594 114.308594 0 255.320312 0 C 396.328125 0 510.636719 114.308594 510.636719 255.320312 Z M 510.636719 255.320312 "/>
<path style=" stroke:none;fill-rule:nonzero;fill:rgb(25.098039%,41.568627%,50.196078%);fill-opacity:1;" d="M 123.671875 199.46875 L 386.96875 199.46875 L 386.96875 430.851562 L 123.671875 430.851562 Z M 123.671875 199.46875 "/>
<path style=" stroke:none;fill-rule:nonzero;fill:rgb(90.196078%,90.196078%,90.196078%);fill-opacity:1;" d="M 107.710938 215.425781 L 171.542969 215.425781 L 171.542969 414.894531 L 107.710938 414.894531 Z M 107.710938 215.425781 "/>
<path style=" stroke:none;fill-rule:nonzero;fill:rgb(80%,80%,80%);fill-opacity:1;" d="M 115.691406 215.425781 L 123.671875 215.425781 L 123.671875 414.894531 L 115.691406 414.894531 Z M 115.691406 215.425781 "/>
<path style=" stroke:none;fill-rule:nonzero;fill:rgb(80%,80%,80%);fill-opacity:1;" d="M 135.636719 215.425781 L 143.617188 215.425781 L 143.617188 414.894531 L 135.636719 414.894531 Z M 135.636719 215.425781 "/>
<path style=" stroke:none;fill-rule:nonzero;fill:rgb(80%,80%,80%);fill-opacity:1;" d="M 155.585938 215.425781 L 163.5625 215.425781 L 163.5625 414.894531 L 155.585938 414.894531 Z M 155.585938 215.425781 "/>
<path style=" stroke:none;fill-rule:nonzero;fill:rgb(90.196078%,90.196078%,90.196078%);fill-opacity:1;" d="M 339.097656 215.425781 L 402.925781 215.425781 L 402.925781 414.894531 L 339.097656 414.894531 Z M 339.097656 215.425781 "/>
<path style=" stroke:none;fill-rule:nonzero;fill:rgb(90.196078%,90.196078%,90.196078%);fill-opacity:1;" d="M 39.894531 510.636719 L 39.894531 478.722656 C 39.894531 474.335938 43.484375 470.746094 47.871094 470.746094 L 462.765625 470.746094 C 467.152344 470.746094 470.746094 474.335938 470.746094 478.722656 L 470.746094 510.636719 Z M 39.894531 510.636719 "/>
<path style=" stroke:none;fill-rule:nonzero;fill:rgb(90.196078%,90.196078%,90.196078%);fill-opacity:1;" d="M 63.828125 470.746094 L 63.828125 438.828125 C 63.828125 434.441406 67.421875 430.851562 71.808594 430.851562 L 438.828125 430.851562 C 443.21875 430.851562 446.808594 434.441406 446.808594 438.828125 L 446.808594 470.746094 Z M 63.828125 470.746094 "/>
<path style=" stroke:none;fill-rule:nonzero;fill:rgb(96.078431%,96.078431%,96.078431%);fill-opacity:1;" d="M 432.5 169.894531 L 256.96875 50.210938 C 255.414062 48.65625 253.378906 47.871094 251.328125 47.871094 C 249.28125 47.871094 247.246094 48.65625 245.691406 50.210938 L 70.160156 169.894531 C 68.617188 171.4375 67.832031 173.511719 67.820312 175.53125 C 67.804688 177.59375 68.578125 179.601562 70.160156 181.171875 C 71.714844 182.738281 73.75 183.511719 75.796875 183.511719 L 426.863281 183.511719 C 428.910156 183.511719 430.945312 182.738281 432.5 181.171875 C 434.082031 179.601562 434.855469 177.59375 434.839844 175.53125 C 434.828125 173.511719 434.042969 171.4375 432.5 169.894531 Z M 432.5 169.894531 "/>
<path style=" stroke:none;fill-rule:nonzero;fill:rgb(80%,80%,80%);fill-opacity:1;" d="M 101.914062 167.554688 L 251.328125 65.679688 L 400.746094 167.554688 Z M 101.914062 167.554688 "/>
<path style=" stroke:none;fill-rule:nonzero;fill:rgb(80%,80%,80%);fill-opacity:1;" d="M 450.796875 191.488281 C 450.796875 195.878906 447.207031 199.46875 442.820312 199.46875 L 59.839844 199.46875 C 55.453125 199.46875 51.863281 195.878906 51.863281 191.488281 C 51.863281 187.101562 55.453125 183.511719 59.839844 183.511719 L 442.820312 183.511719 C 447.207031 183.511719 450.796875 187.101562 450.796875 191.488281 Z M 450.796875 191.488281 "/>
<path style=" stroke:none;fill-rule:nonzero;fill:rgb(90.196078%,90.196078%,90.196078%);fill-opacity:1;" d="M 223.402344 215.425781 L 287.234375 215.425781 L 287.234375 414.894531 L 223.402344 414.894531 Z M 223.402344 215.425781 "/>
<path style=" stroke:none;fill-rule:nonzero;fill:rgb(80%,80%,80%);fill-opacity:1;" d="M 231.382812 215.425781 L 239.363281 215.425781 L 239.363281 414.894531 L 231.382812 414.894531 Z M 231.382812 215.425781 "/>
<path style=" stroke:none;fill-rule:nonzero;fill:rgb(80%,80%,80%);fill-opacity:1;" d="M 251.328125 215.425781 L 259.308594 215.425781 L 259.308594 414.894531 L 251.328125 414.894531 Z M 251.328125 215.425781 "/>
<path style=" stroke:none;fill-rule:nonzero;fill:rgb(80%,80%,80%);fill-opacity:1;" d="M 271.277344 215.425781 L 279.253906 215.425781 L 279.253906 414.894531 L 271.277344 414.894531 Z M 271.277344 215.425781 "/>
<path style=" stroke:none;fill-rule:nonzero;fill:rgb(80%,80%,80%);fill-opacity:1;" d="M 347.074219 215.425781 L 355.054688 215.425781 L 355.054688 414.894531 L 347.074219 414.894531 Z M 347.074219 215.425781 "/>
<path style=" stroke:none;fill-rule:nonzero;fill:rgb(80%,80%,80%);fill-opacity:1;" d="M 367.019531 215.425781 L 375 215.425781 L 375 414.894531 L 367.019531 414.894531 Z M 367.019531 215.425781 "/>
<path style=" stroke:none;fill-rule:nonzero;fill:rgb(80%,80%,80%);fill-opacity:1;" d="M 386.96875 215.425781 L 394.945312 215.425781 L 394.945312 414.894531 L 386.96875 414.894531 Z M 386.96875 215.425781 "/>
<path style=" stroke:none;fill-rule:nonzero;fill:rgb(96.078431%,96.078431%,96.078431%);fill-opacity:1;" d="M 179.519531 422.871094 C 179.519531 427.261719 175.929688 430.851562 171.542969 430.851562 L 107.710938 430.851562 C 103.324219 430.851562 99.734375 427.261719 99.734375 422.871094 C 99.734375 418.484375 103.324219 414.894531 107.710938 414.894531 L 171.542969 414.894531 C 175.929688 414.894531 179.519531 418.484375 179.519531 422.871094 Z M 179.519531 422.871094 "/>
<path style=" stroke:none;fill-rule:nonzero;fill:rgb(96.078431%,96.078431%,96.078431%);fill-opacity:1;" d="M 179.519531 207.445312 C 179.519531 211.835938 175.929688 215.425781 171.542969 215.425781 L 107.710938 215.425781 C 103.324219 215.425781 99.734375 211.835938 99.734375 207.445312 C 99.734375 203.058594 103.324219 199.46875 107.710938 199.46875 L 171.542969 199.46875 C 175.929688 199.46875 179.519531 203.058594 179.519531 207.445312 Z M 179.519531 207.445312 "/>
<path style=" stroke:none;fill-rule:nonzero;fill:rgb(96.078431%,96.078431%,96.078431%);fill-opacity:1;" d="M 295.210938 422.871094 C 295.210938 427.261719 291.621094 430.851562 287.234375 430.851562 L 223.402344 430.851562 C 219.015625 430.851562 215.425781 427.261719 215.425781 422.871094 C 215.425781 418.484375 219.015625 414.894531 223.402344 414.894531 L 287.234375 414.894531 C 291.621094 414.894531 295.210938 418.484375 295.210938 422.871094 Z M 295.210938 422.871094 "/>
<path style=" stroke:none;fill-rule:nonzero;fill:rgb(96.078431%,96.078431%,96.078431%);fill-opacity:1;" d="M 295.210938 207.445312 C 295.210938 211.835938 291.621094 215.425781 287.234375 215.425781 L 223.402344 215.425781 C 219.015625 215.425781 215.425781 211.835938 215.425781 207.445312 C 215.425781 203.058594 219.015625 199.46875 223.402344 199.46875 L 287.234375 199.46875 C 291.621094 199.46875 295.210938 203.058594 295.210938 207.445312 Z M 295.210938 207.445312 "/>
<path style=" stroke:none;fill-rule:nonzero;fill:rgb(96.078431%,96.078431%,96.078431%);fill-opacity:1;" d="M 410.902344 422.871094 C 410.902344 427.261719 407.3125 430.851562 402.925781 430.851562 L 339.097656 430.851562 C 334.707031 430.851562 331.117188 427.261719 331.117188 422.871094 C 331.117188 418.484375 334.707031 414.894531 339.097656 414.894531 L 402.925781 414.894531 C 407.3125 414.894531 410.902344 418.484375 410.902344 422.871094 Z M 410.902344 422.871094 "/>
<path style=" stroke:none;fill-rule:nonzero;fill:rgb(96.078431%,96.078431%,96.078431%);fill-opacity:1;" d="M 410.902344 207.445312 C 410.902344 211.835938 407.3125 215.425781 402.925781 215.425781 L 339.097656 215.425781 C 334.707031 215.425781 331.117188 211.835938 331.117188 207.445312 C 331.117188 203.058594 334.707031 199.46875 339.097656 199.46875 L 402.925781 199.46875 C 407.3125 199.46875 410.902344 203.058594 410.902344 207.445312 Z M 410.902344 207.445312 "/>
<path style=" stroke:none;fill-rule:nonzero;fill:rgb(80%,80%,80%);fill-opacity:1;" d="M 63.828125 466.753906 L 446.808594 466.753906 L 446.808594 470.746094 L 63.828125 470.746094 Z M 63.828125 466.753906 "/>
<path style=" stroke:none;fill-rule:nonzero;fill:rgb(12.941176%,47.45098%,65.098039%);fill-opacity:1;" d="M 251.328125 139.628906 C 244.734375 139.628906 239.363281 134.253906 239.363281 127.660156 C 239.363281 125.453125 241.144531 123.671875 243.351562 123.671875 C 245.558594 123.671875 247.339844 125.453125 247.339844 127.660156 C 247.339844 129.855469 249.136719 131.648438 251.328125 131.648438 C 253.523438 131.648438 255.320312 129.855469 255.320312 127.660156 C 255.320312 125.464844 253.523438 123.671875 251.328125 123.671875 C 244.734375 123.671875 239.363281 118.296875 239.363281 111.703125 C 239.363281 105.105469 244.734375 99.734375 251.328125 99.734375 C 257.925781 99.734375 263.296875 105.105469 263.296875 111.703125 C 263.296875 113.910156 261.515625 115.691406 259.308594 115.691406 C 257.101562 115.691406 255.320312 113.910156 255.320312 111.703125 C 255.320312 109.507812 253.523438 107.710938 251.328125 107.710938 C 249.136719 107.710938 247.339844 109.507812 247.339844 111.703125 C 247.339844 113.894531 249.136719 115.691406 251.328125 115.691406 C 257.925781 115.691406 263.296875 121.0625 263.296875 127.660156 C 263.296875 134.253906 257.925781 139.628906 251.328125 139.628906 Z M 251.328125 139.628906 "/>
<path style=" stroke:none;fill-rule:nonzero;fill:rgb(12.941176%,47.45098%,65.098039%);fill-opacity:1;" d="M 251.328125 107.710938 C 249.121094 107.710938 247.339844 105.929688 247.339844 103.722656 L 247.339844 95.746094 C 247.339844 93.539062 249.121094 91.753906 251.328125 91.753906 C 253.539062 91.753906 255.320312 93.539062 255.320312 95.746094 L 255.320312 103.722656 C 255.320312 105.929688 253.539062 107.710938 251.328125 107.710938 Z M 251.328125 107.710938 "/>
<path style=" stroke:none;fill-rule:nonzero;fill:rgb(12.941176%,47.45098%,65.098039%);fill-opacity:1;" d="M 251.328125 147.605469 C 249.121094 147.605469 247.339844 145.824219 247.339844 143.617188 L 247.339844 135.636719 C 247.339844 133.429688 249.121094 131.648438 251.328125 131.648438 C 253.539062 131.648438 255.320312 133.429688 255.320312 135.636719 L 255.320312 143.617188 C 255.320312 145.824219 253.539062 147.605469 251.328125 147.605469 Z M 251.328125 147.605469 "/>
</g>
</svg>
