<?xml version="1.0" standalone="no"?>
<!DOCTYPE svg PUBLIC "-//W3C//DTD SVG 20010904//EN"
 "http://www.w3.org/TR/2001/REC-SVG-20010904/DTD/svg10.dtd">
<svg version="1.0" xmlns="http://www.w3.org/2000/svg"
 width="260.000000pt" height="260.000000pt" viewBox="0 0 260.000000 260.000000"
 preserveAspectRatio="xMidYMid meet">
<metadata>
Created by potrace 1.11, written by Peter Selinger 2001-2013
</metadata>
<g transform="translate(0.000000,260.000000) scale(0.100000,-0.100000)"
fill="#000000" stroke="none">
<path d="M718 2595 c-2 -2 -19 -6 -38 -9 -93 -15 -245 -86 -330 -154 -137
-111 -244 -266 -299 -432 -67 -205 -66 -462 2 -656 100 -281 327 -502 585
-569 78 -21 207 -31 197 -16 -10 18 -13 230 -3 307 10 80 31 170 57 246 l19
54 -43 -21 c-23 -12 -52 -25 -64 -28 -17 -4 -21 -13 -21 -44 0 -39 0 -39 -40
-39 -29 0 -40 5 -41 16 -1 8 -2 26 -2 39 -2 18 -13 27 -54 43 -87 32 -131 100
-135 209 -2 84 -8 79 92 79 l90 0 0 -27 c1 -67 8 -131 14 -142 11 -18 44 -13
56 8 14 28 12 106 -4 145 -9 22 -42 55 -99 96 -94 71 -132 122 -147 198 -25
133 28 232 141 265 25 7 45 19 45 27 1 8 2 23 3 33 1 13 10 17 41 17 39 0 40
-1 40 -34 0 -30 4 -34 31 -40 86 -17 135 -80 143 -185 l5 -61 -95 0 -94 0 0
48 c0 59 -18 87 -48 78 -12 -4 -23 -16 -23 -27 -1 -10 -2 -25 -2 -31 -4 -53
13 -76 101 -136 145 -100 176 -148 177 -278 l0 -70 49 70 c122 175 299 307
494 367 111 35 104 24 72 106 -113 281 -350 487 -618 539 -64 12 -244 18 -254
9z"/>
<path d="M1613 2483 c2 -55 2 -56 40 -69 21 -7 51 -22 66 -34 30 -21 84 -99
96 -137 6 -22 4 -23 -50 -23 l-56 0 32 -57 c111 -203 142 -254 149 -246 10 10
159 268 167 288 4 12 -7 15 -56 15 l-60 0 -50 73 c-90 134 -210 247 -263 247
-15 0 -17 -8 -15 -57z"/>
<path d="M1598 1830 c-152 -38 -278 -111 -384 -222 -87 -90 -118 -134 -170
-237 -120 -242 -135 -552 -38 -806 85 -222 267 -419 469 -505 148 -63 364 -76
510 -30 287 91 498 323 587 648 31 112 31 382 0 494 -77 280 -246 495 -472
602 -108 51 -180 68 -310 72 -90 3 -131 0 -192 -16z m302 -420 l35 -9 0 -106
c1 -91 -2 -105 -15 -99 -67 29 -121 37 -174 25 -60 -13 -122 -53 -155 -100
l-22 -31 180 0 c100 0 181 -3 182 -7 6 -44 5 -74 -4 -80 -6 -4 -97 -7 -202 -7
l-190 -1 -3 -62 -3 -63 203 -2 203 -3 0 -42 0 -43 -182 0 c-103 0 -183 -4
-183 -9 0 -18 89 -101 126 -116 54 -22 122 -26 169 -8 22 8 47 17 55 19 14 5
16 -9 15 -98 l0 -103 -40 -13 c-94 -31 -239 -7 -327 55 -77 53 -146 140 -180
228 -15 39 -17 40 -74 45 l-59 5 -1 43 -1 42 49 0 48 0 0 66 c0 56 -2 65 -17
63 -10 -1 -32 -1 -48 0 -29 1 -31 3 -31 46 l-1 45 63 0 c59 0 62 1 69 28 12
48 62 126 117 180 109 109 254 150 398 112z"/>
<path d="M682 573 c-86 -148 -132 -233 -132 -242 0 -5 26 -9 57 -8 l58 2 48
-70 c90 -132 190 -231 255 -250 21 -6 22 -4 22 53 l0 59 -41 12 c-50 15 -110
74 -144 141 l-25 50 55 0 c30 0 55 4 55 9 0 6 -156 298 -165 309 -2 2 -21 -27
-43 -65z"/>
</g>
</svg>
